<svg width="433.301" height="87.201" viewBox="0 0 433.301 87.201"
    xmlns="http://www.w3.org/2000/svg">
    <g id="svgGroup" stroke-linecap="round" fill-rule="evenodd" font-size="9pt" >
        <path d="M 287.6 86.2 L 287.6 16.2 L 303.3 16.2 L 310.3 66.3 L 310.5 66.3 L 317.5 16.2 L 333.2 16.2 L 333.2 86.2 L 322.8 86.2 L 322.8 33.2 L 322.6 33.2 L 314.6 86.2 L 305.4 86.2 L 297.4 33.2 L 297.2 33.2 L 297.2 86.2 L 287.6 86.2 Z M 7.1 86.2 L 0 16.2 L 10.6 16.2 L 15.5 70 L 15.7 70 L 20.9 16.2 L 32.9 16.2 L 38.1 70 L 38.3 70 L 43.2 16.2 L 52.7 16.2 L 45.6 86.2 L 31.9 86.2 L 26.9 39 L 26.7 39 L 21.7 86.2 L 7.1 86.2 Z M 188.8 86.2 L 188.8 16.2 L 202.6 16.2 L 213.3 58.1 L 213.5 58.1 L 213.5 16.2 L 223.3 16.2 L 223.3 86.2 L 212 86.2 L 198.8 35.1 L 198.6 35.1 L 198.6 86.2 L 188.8 86.2 Z M 400.5 69.6 L 400.5 16.2 L 411.5 16.2 L 411.5 70.4 Q 411.5 74 412.95 75.6 A 4.697 4.697 0 0 0 415.391 77.011 Q 416.16 77.197 417.071 77.2 A 9.11 9.11 0 0 0 417.1 77.2 Q 419.544 77.2 420.964 75.889 A 4.571 4.571 0 0 0 421.25 75.6 A 4.717 4.717 0 0 0 422.148 74.082 Q 422.665 72.715 422.698 70.679 A 17.299 17.299 0 0 0 422.7 70.4 L 422.7 16.2 L 433.3 16.2 L 433.3 69.6 A 27.602 27.602 0 0 1 432.869 74.64 Q 432.34 77.483 431.163 79.716 A 13.766 13.766 0 0 1 429.1 82.65 A 13.5 13.5 0 0 1 422.57 86.506 Q 420.383 87.102 417.767 87.186 A 27.056 27.056 0 0 1 416.9 87.2 A 22.43 22.43 0 0 1 412.059 86.71 Q 408.944 86.021 406.638 84.365 A 12.768 12.768 0 0 1 404.7 82.65 Q 401.136 78.789 400.596 72.083 A 30.974 30.974 0 0 1 400.5 69.6 Z M 58.3 86.2 L 58.3 16.2 L 88.3 16.2 L 88.3 26.2 L 69.3 26.2 L 69.3 44.7 L 84.4 44.7 L 84.4 54.7 L 69.3 54.7 L 69.3 76.2 L 88.3 76.2 L 88.3 86.2 L 58.3 86.2 Z M 360.6 86.2 L 360.6 16.2 L 376.9 16.2 A 29.066 29.066 0 0 1 381.317 16.512 Q 383.644 16.871 385.491 17.642 A 11.489 11.489 0 0 1 389.3 20.15 Q 393.2 24.1 393.2 32.3 L 393.2 36.6 A 25.259 25.259 0 0 1 392.778 41.41 Q 392.263 44.057 391.12 46.006 A 10.176 10.176 0 0 1 386 50.4 L 386 50.6 A 9.225 9.225 0 0 1 389.234 52.274 A 8.631 8.631 0 0 1 391.65 55.5 A 16.431 16.431 0 0 1 392.655 58.627 Q 393.3 61.525 393.3 65.4 L 393.3 77.7 Q 393.3 80.634 393.491 82.467 A 21.93 21.93 0 0 0 393.5 82.55 A 12.134 12.134 0 0 0 394.451 86.087 A 13.583 13.583 0 0 0 394.5 86.2 L 383.3 86.2 A 18.152 18.152 0 0 1 382.775 84.45 A 13.945 13.945 0 0 1 382.5 83 A 14.955 14.955 0 0 1 382.414 82.116 Q 382.305 80.612 382.3 77.866 A 147.151 147.151 0 0 1 382.3 77.6 L 382.3 64.8 Q 382.3 60 380.75 58.1 A 4.556 4.556 0 0 0 378.883 56.768 Q 378.115 56.457 377.145 56.317 A 12.174 12.174 0 0 0 375.4 56.2 L 371.6 56.2 L 371.6 86.2 L 360.6 86.2 Z M 143.5 86.2 L 143.5 56.4 L 130.2 16.2 L 141.9 16.2 L 149.4 41.9 L 149.6 41.9 L 157.1 16.2 L 167.8 16.2 L 154.5 56.4 L 154.5 86.2 L 143.5 86.2 Z M 228.6 86.2 L 240 16.2 L 254.9 16.2 L 266.3 86.2 L 255.3 86.2 L 253.3 72.3 L 253.3 72.5 L 240.8 72.5 L 238.8 86.2 L 228.6 86.2 Z M 94.6 86.2 L 94.6 16.2 L 111.2 16.2 A 29.066 29.066 0 0 1 115.617 16.512 Q 117.944 16.871 119.791 17.642 A 11.489 11.489 0 0 1 123.6 20.15 Q 127.5 24.1 127.5 32.3 L 127.5 35.1 A 27.503 27.503 0 0 1 127.293 38.576 Q 127.059 40.412 126.559 41.945 A 13.238 13.238 0 0 1 125.75 43.9 Q 124 47.3 120.4 48.8 L 120.4 49 A 11.171 11.171 0 0 1 127.738 56.894 Q 128.385 59.054 128.546 61.746 A 30.947 30.947 0 0 1 128.6 63.6 L 128.6 69.6 Q 128.6 75.463 126.373 79.309 A 12.751 12.751 0 0 1 124.35 81.95 A 13.54 13.54 0 0 1 118.72 85.266 Q 116.581 85.937 113.993 86.126 A 28.779 28.779 0 0 1 111.9 86.2 L 94.6 86.2 Z M 341.4 86.2 L 341.4 16.2 L 352.4 16.2 L 352.4 86.2 L 341.4 86.2 Z M 242.1 63 L 252 63 L 247.1 28.4 L 246.9 28.4 L 242.1 63 Z M 105.6 76.2 L 111.9 76.2 A 8.64 8.64 0 0 0 113.49 76.063 Q 115.216 75.74 116.2 74.65 A 4.349 4.349 0 0 0 116.997 73.319 Q 117.505 72.035 117.585 70.065 A 18.793 18.793 0 0 0 117.6 69.3 L 117.6 63.2 Q 117.6 58.4 115.95 56.55 Q 114.695 55.143 112.195 54.806 A 12.724 12.724 0 0 0 110.5 54.7 L 105.6 54.7 L 105.6 76.2 Z M 371.6 46.2 L 375.6 46.2 Q 378.9 46.2 380.55 44.5 Q 382.2 42.8 382.2 38.8 L 382.2 33.4 Q 382.2 30.015 381.129 28.297 A 4.26 4.26 0 0 0 380.85 27.9 A 4.239 4.239 0 0 0 378.7 26.481 Q 377.98 26.261 377.103 26.213 A 9.216 9.216 0 0 0 376.6 26.2 L 371.6 26.2 L 371.6 46.2 Z M 105.6 44.7 L 109.9 44.7 Q 113.2 44.7 114.85 43 Q 116.5 41.3 116.5 37.3 L 116.5 33.4 Q 116.5 30.015 115.429 28.297 A 4.26 4.26 0 0 0 115.15 27.9 A 4.239 4.239 0 0 0 113 26.481 Q 112.28 26.261 111.403 26.213 A 9.216 9.216 0 0 0 110.9 26.2 L 105.6 26.2 L 105.6 44.7 Z M 340.9 11.5 L 347.9 0 L 359.9 0 L 349.2 11.5 L 340.9 11.5 Z" vector-effect="non-scaling-stroke"/>
    </g>
</svg>